<?xml version="1.0" encoding="UTF-8"?>
<svg xmlns="http://www.w3.org/2000/svg" xmlns:xlink="http://www.w3.org/1999/xlink" version="1.1" viewBox="0 0 257.8 176.3">
  <defs>
    <style>
      .cls-1 {
        fill: url(#Dégradé_sans_nom);
      }
    </style>
    <linearGradient id="Dégradé_sans_nom" data-name="Dégradé sans nom" x1="54" y1="78" x2="203.8" y2="78" gradientTransform="translate(0 166.2) scale(1 -1)" gradientUnits="userSpaceOnUse">
      <stop offset="0" stop-color="#f95bff"/>
      <stop offset="1" stop-color="#5bc5ff"/>
    </linearGradient>
  </defs>
  <!-- Generator: Adobe Illustrator 28.6.0, SVG Export Plug-In . SVG Version: 1.2.0 Build 709)  -->
  <g>
    <g id="Calque_1">
      <path class="cls-1" d="M69.4,84.1v36.6c0,1-.4,1.4-1.4,1.4h-12c-1.7,0-1.9-.2-1.9-1.9v-63.8c0-1.1.3-1.5,1.5-1.5h12.3c1.2,0,1.5.4,1.5,1.5v21.5c.4-2.6,1-5.2,2.1-7.7,3.6-8.5,10-13.6,19-15.6,9.3-2,17.2.7,24,7.2.4.4.8.8,1.1,1.2.6.7.6,1.2,0,1.8-2.1,2.1-4.2,4.2-6.4,6.4-.9.9-1.9,1.9-2.8,2.8-.8.8-1.3.8-2.1,0-1.2-1-2.4-2.2-3.7-3-5.9-3.2-13.6.5-15,7.2-.6,3-.1,5.9,1.2,8.6,1.7,3.4,4.2,6.2,6.8,8.9,4.1,4.3,8.8,8.1,13.7,11.5,7.1,4.9,14.2,9.7,21.3,14.5.3.2.6.2.9,0,5.5-3.7,11.1-7.3,16.6-11.1,6.4-4.4,12.8-9,18.2-14.7,2.1-2.2,4-4.6,5.8-7,1.8-2.5,2.9-5.4,2.8-8.6-.2-7.1-6.9-12.1-13.6-10.1-1.9.5-3.4,1.6-4.8,3-.2.2-.4.4-.6.7-.8.9-1.3.9-2.2,0-3-3-6-6-8.9-8.9-1-1-1-1.4,0-2.4,3.6-3.8,7.8-6.5,12.9-7.9,10.6-2.9,27.5,1.9,32,18.6.4,1.5.7,3.1,1,4.8v-21.6c0-1.4.3-1.7,1.7-1.7h12c1.3,0,1.6.3,1.6,1.6v64.1c0,1.3-.3,1.6-1.6,1.6h-11.9c-1.6,0-1.8-.3-1.8-1.8v-36.4c-1,8-5.1,14.4-10.2,20.3-5.2,6-11.3,11-17.7,15.7-1,.7-1.9,1.4-2.9,2.1-.3.2-.6.2-.9.3,0,0,0,0-.1,0h-55.5c-.4,0-.8-.1-1.1-.3-6.2-4.4-12.2-9-17.5-14.5-2.4-2.5-4.7-5.2-6.8-8-3.4-4.5-5.7-9.6-6.4-15.3h0Z"/>
    </g>
  </g>
</svg>